<?xml version="1.0" standalone="no"?>
<!DOCTYPE svg PUBLIC "-//W3C//DTD SVG 20010904//EN"
 "http://www.w3.org/TR/2001/REC-SVG-20010904/DTD/svg10.dtd">
<svg version="1.0" xmlns="http://www.w3.org/2000/svg"
 width="1024.000000pt" height="1024.000000pt" viewBox="0 0 1024.000000 1024.000000"
 preserveAspectRatio="xMidYMid meet">

<g transform="translate(0.000000,1024.000000) scale(0.100000,-0.100000)"
fill="#000000" stroke="none">
<path d="M0 5120 l0 -5120 5120 0 5120 0 0 5120 0 5120 -5120 0 -5120 0 0
-5120z m6056 3815 c102 -30 176 -74 226 -137 48 -59 408 -596 408 -608 0 -6
211 -10 573 -10 609 0 654 -3 780 -50 175 -66 308 -219 364 -420 17 -62 18
-153 18 -1770 l0 -1705 -23 -65 c-63 -175 -201 -314 -375 -378 l-72 -27 -640
0 -640 0 -3 101 c-2 87 0 103 16 117 16 15 77 17 627 19 601 3 611 3 657 25
95 44 176 141 204 245 21 79 21 3297 0 3375 -33 122 -96 201 -204 251 l-57 27
-615 5 c-600 5 -616 6 -667 26 -96 40 -123 71 -334 385 -111 165 -215 310
-231 324 -16 13 -47 29 -68 35 -27 7 -315 10 -892 8 l-853 -3 -55 -30 c-52
-29 -61 -40 -242 -320 -197 -305 -234 -350 -328 -394 l-55 -26 -630 -5 c-615
-5 -631 -6 -682 -26 -104 -43 -175 -124 -207 -234 -15 -50 -16 -225 -14 -1730
l3 -1675 27 -57 c35 -75 94 -138 165 -174 l58 -29 645 -3 c494 -2 646 -5 652
-15 11 -18 10 -185 -2 -208 -10 -18 -28 -19 -644 -19 -634 0 -634 0 -714 23
-190 55 -334 192 -408 387 l-29 75 0 1700 0 1700 23 80 c58 201 183 337 380
414 l67 26 640 5 639 5 41 60 c22 33 110 166 194 295 84 129 176 258 203 286
56 58 122 95 219 124 61 17 110 19 915 19 l852 1 88 -25z m-2854 -438 c25 -21
27 -28 30 -117 l3 -95 -382 -3 -383 -2 0 95 c0 91 1 97 26 120 l27 25 326 0
c323 0 326 0 353 -23z m2273 -331 c278 -52 505 -134 742 -268 251 -142 509
-372 666 -594 l39 -54 -152 0 -152 0 -111 113 c-194 195 -386 328 -619 427
-157 66 -258 95 -433 125 -188 32 -313 39 -477 26 -458 -35 -867 -217 -1186
-524 -305 -296 -497 -656 -574 -1077 -17 -94 -21 -158 -22 -355 -1 -253 5
-310 50 -485 69 -266 194 -510 371 -722 86 -104 276 -284 393 -372 207 -156
488 -268 825 -328 159 -28 414 -30 560 -4 334 59 587 155 830 314 160 105 343
299 512 545 l33 47 135 0 c74 0 135 -2 135 -5 0 -27 -105 -195 -209 -335 -77
-104 -287 -312 -403 -398 -287 -214 -555 -327 -963 -404 -102 -19 -153 -22
-335 -22 -275 0 -426 25 -721 120 -421 134 -845 461 -1109 856 -138 205 -270
526 -325 789 -36 169 -46 502 -21 684 108 778 585 1431 1266 1731 222 98 407
148 685 188 76 11 484 -2 570 -18z m1745 -1211 l0 -105 -114 0 c-95 0 -115 3
-120 16 -3 9 -6 56 -6 105 l0 89 120 0 120 0 0 -105z m-1623 -29 c23 -41 89
-132 146 -204 l104 -130 11 -93 c6 -52 14 -152 18 -224 4 -71 10 -136 14 -143
7 -14 52 76 65 131 14 56 99 75 141 30 24 -26 54 -108 54 -149 0 -43 -51 -196
-94 -282 -67 -132 -97 -169 -145 -177 -39 -6 -40 -8 -62 -73 -31 -97 -68 -175
-130 -277 l-54 -90 5 -130 5 -131 68 -87 c37 -48 67 -92 67 -99 0 -29 -97
-163 -162 -223 -160 -148 -425 -228 -652 -196 -105 15 -245 63 -329 112 -96
57 -195 160 -242 251 l-39 75 72 85 72 85 0 128 0 127 -90 180 c-50 99 -96
201 -104 227 -12 42 -16 47 -50 52 -23 4 -50 19 -71 39 -73 71 -166 295 -169
405 -1 77 34 152 80 171 49 20 87 -9 129 -101 31 -69 55 -95 55 -61 0 7 7 80
15 162 17 164 37 276 67 372 18 60 20 62 46 55 46 -12 372 -8 457 6 231 37
425 107 595 215 30 19 57 35 60 35 3 0 24 -32 47 -73z m1614 -266 l169 0 0
-100 0 -100 -195 0 -195 0 0 86 c0 91 12 129 37 120 8 -3 91 -6 184 -6z m-41
-527 l0 -103 -85 4 c-47 2 -87 0 -91 -5 -3 -5 -11 -9 -17 -9 -12 0 -13 135 -2
187 6 25 29 31 128 29 l67 0 0 -103z m481 75 c3 -46 -1 -170 -6 -178 -3 -6
-52 -10 -110 -10 -93 0 -105 2 -115 19 -14 27 -13 154 2 169 17 17 228 17 229
0z m-251 -473 l0 -105 -209 0 -209 0 0 105 0 105 209 0 209 0 0 -105z m-312
-409 l3 -109 -38 7 c-21 3 -71 6 -110 6 l-73 0 0 99 0 100 43 4 c23 2 71 3
107 3 l65 -1 3 -109z m352 5 l0 -111 -109 0 c-94 0 -110 2 -115 17 -7 17 -7
182 0 194 1 3 53 6 113 8 l111 2 0 -110z m-4610 -2199 c69 -36 140 -112 140
-150 0 -9 -76 -46 -117 -57 -17 -5 -25 0 -38 24 -57 111 -219 91 -276 -34 -29
-62 -26 -177 6 -241 60 -120 197 -136 289 -33 20 21 39 39 42 39 18 0 94 -66
94 -82 0 -29 -73 -101 -132 -131 -68 -33 -138 -42 -214 -27 -79 17 -122 40
-171 93 -53 57 -78 107 -94 184 -34 165 71 375 214 427 65 24 200 17 257 -12z
m5842 -1 c71 -37 159 -135 144 -160 -7 -11 -109 -51 -129 -51 -7 0 -22 16 -35
36 -64 98 -221 75 -273 -40 -13 -29 -19 -64 -19 -121 0 -97 21 -150 76 -191
50 -39 139 -41 197 -6 32 21 37 28 37 63 l0 39 -65 0 -65 0 0 65 0 66 136 -3
136 -3 -1 -125 -1 -125 -48 -44 c-73 -68 -140 -95 -237 -96 -67 0 -89 5 -137
28 -109 54 -178 164 -186 297 -11 196 88 348 255 390 61 15 166 6 215 -19z
m-6977 -51 l0 -65 -137 -3 -138 -3 0 -69 0 -69 113 -3 112 -3 0 -65 0 -65
-112 -3 -113 -3 0 -127 c0 -70 -4 -133 -9 -140 -5 -9 -28 -12 -77 -10 l-69 3
-3 335 c-1 184 0 341 3 348 3 10 52 12 217 10 l213 -3 0 -65z m382 58 c14 -19
243 -650 243 -671 0 -14 -10 -17 -70 -17 -38 0 -73 -1 -77 -2 -5 -1 -19 30
-33 68 l-25 69 -112 3 c-108 3 -112 2 -118 -20 -4 -13 -16 -45 -26 -73 l-19
-50 -72 2 c-52 1 -74 5 -76 15 -1 7 52 159 118 338 66 179 122 331 125 338 3
8 26 12 68 12 40 0 68 -5 74 -12z m1438 -11 c4 -13 5 -43 3 -68 l-3 -44 -137
-3 -138 -3 0 -69 0 -69 118 -3 117 -3 3 -53 c5 -78 -1 -82 -129 -82 l-109 0 0
-75 0 -75 145 0 146 0 -3 -67 c-2 -38 -6 -67 -10 -65 -5 1 -102 2 -218 2
l-210 0 0 343 c0 189 3 347 7 350 3 4 98 7 209 7 l204 0 5 -23z m810 -12 c75
-38 105 -79 105 -147 0 -61 -19 -108 -56 -137 -26 -20 -27 -24 -11 -32 48 -27
87 -94 87 -149 0 -36 -23 -96 -48 -123 -28 -32 -108 -67 -169 -75 -32 -4 -113
-6 -180 -4 l-123 3 0 343 c0 188 3 346 8 350 4 5 79 6 167 4 155 -3 163 -5
220 -33z m425 -250 l0 -285 145 0 c164 0 169 -2 163 -83 l-3 -42 -223 -5
c-123 -3 -226 -3 -228 -1 -7 7 -4 687 3 694 3 4 37 7 75 7 l68 0 0 -285z m512
43 c3 -212 5 -247 21 -276 19 -34 67 -62 108 -62 32 0 88 30 102 54 8 14 14
102 17 271 l5 250 75 0 75 0 3 -238 c1 -142 -2 -254 -8 -277 -19 -70 -69 -132
-134 -165 -52 -26 -70 -30 -140 -30 -71 0 -88 4 -135 30 -29 16 -66 45 -82 65
-52 62 -59 108 -59 370 0 130 3 240 7 243 3 4 37 7 74 7 l67 0 4 -242z m943
214 c58 -27 91 -55 113 -97 46 -89 33 -173 -38 -247 l-49 -50 75 -125 c41 -69
74 -131 74 -139 0 -11 -19 -14 -84 -14 l-84 0 -64 118 -64 117 -47 3 -46 3 -3
-122 -3 -121 -75 0 -75 0 -3 338 c-1 187 0 345 3 352 4 11 36 13 163 10 137
-3 163 -7 207 -26z m660 0 c156 -71 193 -235 78 -350 l-43 -43 80 -136 c43
-75 78 -139 76 -142 -2 -3 -44 -4 -92 -1 l-88 5 -64 118 -64 117 -44 0 -44 0
0 -120 0 -120 -80 0 -80 0 0 343 c0 189 3 347 8 351 4 4 75 6 157 4 129 -3
157 -7 200 -26z m450 -322 l0 -345 -77 -3 -78 -3 0 344 c0 189 3 347 7 351 4
4 39 5 78 4 l70 -3 0 -345z m464 131 l136 -214 3 217 2 217 68 -3 67 -3 3
-347 2 -348 -54 0 c-30 0 -60 -2 -68 -5 -8 -3 -46 45 -105 137 -51 79 -117
181 -148 228 l-55 85 0 -221 c0 -121 -2 -223 -4 -225 -2 -2 -34 -2 -70 -1
l-66 4 0 342 c0 189 3 346 7 350 4 4 38 5 76 4 l69 -3 137 -214z m-2682 -1006
c40 -110 120 -329 178 -488 59 -158 103 -292 100 -297 -9 -15 -190 -13 -202 3
-6 6 -25 58 -42 115 l-32 102 -188 0 -189 0 -38 -112 -39 -113 -97 -3 c-82 -2
-98 0 -98 12 0 15 334 936 352 969 8 16 22 17 116 15 l106 -3 73 -200z m651
-292 l-3 -498 -95 0 -95 0 -3 498 -2 497 100 0 100 0 -2 -497z"/>
<path d="M1972 2823 c-18 -49 -32 -92 -32 -96 0 -4 30 -7 66 -7 75 0 72 -13
25 115 l-28 77 -31 -89z"/>
<path d="M4090 2935 l0 -75 58 0 c93 0 146 46 118 101 -16 34 -53 49 -118 49
l-58 0 0 -75z"/>
<path d="M4090 2660 l0 -80 64 0 c75 0 129 29 134 71 6 54 -54 88 -155 89
l-43 0 0 -80z"/>
<path d="M5990 2920 l0 -90 64 0 c55 0 69 4 95 26 33 28 41 67 20 106 -15 28
-69 48 -129 48 l-50 0 0 -90z"/>
<path d="M6660 2920 l0 -90 55 0 c69 0 108 19 125 61 11 27 11 36 -1 58 -20
36 -74 61 -131 61 l-48 0 0 -90z"/>
<path d="M4858 1740 c-30 -91 -59 -175 -62 -187 l-7 -23 125 0 125 0 -58 173
c-32 94 -60 179 -63 187 -2 8 -29 -60 -60 -150z"/>
</g>
</svg>
